<svg width="95" height="93" viewBox="0 0 95 93" fill="none" xmlns="http://www.w3.org/2000/svg">
<path d="M41.9173 33.6915C41.0163 35.1696 39.9291 36.5621 38.6521 37.8428L22.9813 53.5136C22.5196 50.8888 22.5755 48.1783 23.2382 45.5945C23.7855 43.4909 24.7163 41.4915 25.9338 39.6932C27.5236 37.3514 29.6197 35.769 31.6302 33.8442C33.1418 32.4033 34.1359 30.4486 34.6125 28.4307C35.1896 25.9771 34.9773 23.3597 34.0019 21.029C33.4024 19.6105 32.5238 18.3074 31.4329 17.2165C29.2139 14.9975 26.3247 13.929 23.4281 13.8247C21.1905 13.6944 18.9082 14.4093 17.2104 16.0102C14.5074 18.5755 13.6548 23.0247 15.6095 26.275C15.7174 26.45 16.9275 28.2185 17.0056 28.144L7.30681 37.8428C3.63949 34.1755 1.53219 29.5551 0.969988 24.782C0.195571 18.2702 2.31405 11.4866 7.30308 6.49382C12.2996 1.49734 19.0869 -0.613694 25.5912 0.153277C30.3643 0.719198 34.9848 2.83023 38.6484 6.49382C40.7631 8.60858 42.3641 11.0472 43.4475 13.6497C46.1356 20.1206 45.6256 27.6079 41.9173 33.6915Z" fill="white"/>
<path d="M34.6118 28.4273C34.1352 30.4452 33.1374 32.3999 31.6295 33.8407C29.6153 35.7619 27.5229 37.3479 25.9331 39.6898C24.7156 41.4881 23.7848 43.4874 23.2375 45.591C22.5748 48.1786 22.519 50.8891 22.9806 53.5102C20.3409 50.8742 19.0006 47.4265 18.9634 43.9677C18.9485 42.6274 19.1309 41.2908 19.5032 39.9951C20.125 37.8431 21.2866 35.814 22.9806 34.12C24.6598 32.4408 26.3352 30.7654 28.0144 29.0863C28.8297 28.2709 29.6153 27.5225 30.1998 26.5136C31.3838 24.4621 31.7003 21.9936 31.0376 19.7151C30.6206 18.2891 29.8275 16.9711 28.7255 15.9733C27.5825 14.9382 26.149 14.2681 24.6412 13.9702C24.2428 13.892 23.8332 13.8399 23.4274 13.8213C26.324 13.9218 29.2169 14.9941 31.4322 17.2131C32.5231 18.304 33.4018 19.6071 34.0012 21.0256C34.9767 23.3563 35.1889 25.9737 34.6118 28.4273Z" fill="white"/>
<path fill-rule="evenodd" clip-rule="evenodd" d="M93.86 47.8891C93.9685 47.9003 94.077 47.9123 94.1853 47.9252V47.9289L93.86 47.8891Z" fill="white"/>
<path d="M44.6003 85.5589L75.9456 54.2136C80.8513 49.3372 87.474 47.2291 93.86 47.8891L88.2767 47.2066C86.4337 46.9832 84.5982 46.8752 82.7664 46.8752C70.7592 46.8752 59.1504 51.6185 50.5536 60.2153C40.6724 70.0966 26.7961 74.892 12.9199 73.2278L6.91819 72.5092C7.48039 77.2786 9.59142 81.9027 13.255 85.5589C21.9076 94.2189 35.9477 94.2189 44.6003 85.5589Z" fill="white"/>
<path d="M88.2767 47.2023L94.1853 47.9252C93.6232 43.1521 91.5121 38.5311 87.8485 34.8675C79.2108 26.2297 65.2117 26.2111 56.5517 34.8191L25.2064 66.1644C20.2099 71.1609 13.4263 73.2719 6.91819 72.5049L12.9199 73.2235C26.7961 74.8915 40.6724 70.0923 50.5536 60.211C59.1504 51.6143 70.7592 46.8709 82.7664 46.8709C84.5982 46.8709 86.4337 46.9789 88.2767 47.2023Z" fill="white"/>
</svg>
